<?xml version="1.0" encoding="UTF-8" standalone="no"?>
<!-- Created with Inkscape (http://www.inkscape.org/) -->

<svg
   xmlns:dc="http://purl.org/dc/elements/1.1/"
   xmlns:cc="http://creativecommons.org/ns#"
   xmlns:rdf="http://www.w3.org/1999/02/22-rdf-syntax-ns#"
   xmlns:svg="http://www.w3.org/2000/svg"
   xmlns="http://www.w3.org/2000/svg"
   xmlns:xlink="http://www.w3.org/1999/xlink"
   version="1.1"
   width="1000"
   height="600"
   id="svg2">
  <defs
     id="defs4">
    <filter
       x="-0.228"
       y="-0.228"
       width="1.456"
       height="1.456"
       color-interpolation-filters="sRGB"
       id="filter8045">
      <feGaussianBlur
         stdDeviation="0.95"
         id="feGaussianBlur8047" />
    </filter>
    <filter
       x="-0.228"
       y="-0.228"
       width="1.456"
       height="1.456"
       color-interpolation-filters="sRGB"
       id="filter8041">
      <feGaussianBlur
         stdDeviation="0.95"
         id="feGaussianBlur8043" />
    </filter>
    <filter
       x="-0.228"
       y="-0.228"
       width="1.456"
       height="1.456"
       color-interpolation-filters="sRGB"
       id="filter8037">
      <feGaussianBlur
         stdDeviation="0.95"
         id="feGaussianBlur8039" />
    </filter>
    <filter
       x="-0.228"
       y="-0.228"
       width="1.456"
       height="1.456"
       color-interpolation-filters="sRGB"
       id="filter8033">
      <feGaussianBlur
         stdDeviation="0.95"
         id="feGaussianBlur8035" />
    </filter>
    <filter
       x="-0.228"
       y="-0.228"
       width="1.456"
       height="1.456"
       color-interpolation-filters="sRGB"
       id="filter8029">
      <feGaussianBlur
         stdDeviation="0.95"
         id="feGaussianBlur8031" />
    </filter>
    <filter
       x="-0.228"
       y="-0.228"
       width="1.456"
       height="1.456"
       color-interpolation-filters="sRGB"
       id="filter8025">
      <feGaussianBlur
         stdDeviation="0.95"
         id="feGaussianBlur8027" />
    </filter>
    <filter
       x="-0.228"
       y="-0.228"
       width="1.456"
       height="1.456"
       color-interpolation-filters="sRGB"
       id="filter8021">
      <feGaussianBlur
         stdDeviation="0.95"
         id="feGaussianBlur8023" />
    </filter>
    <filter
       x="-0.228"
       y="-0.228"
       width="1.456"
       height="1.456"
       color-interpolation-filters="sRGB"
       id="filter8017">
      <feGaussianBlur
         stdDeviation="0.95"
         id="feGaussianBlur8019" />
    </filter>
    <filter
       x="-0.228"
       y="-0.228"
       width="1.456"
       height="1.456"
       color-interpolation-filters="sRGB"
       id="filter8013">
      <feGaussianBlur
         stdDeviation="0.95"
         id="feGaussianBlur8015" />
    </filter>
    <filter
       x="-0.228"
       y="-0.228"
       width="1.456"
       height="1.456"
       color-interpolation-filters="sRGB"
       id="filter8009">
      <feGaussianBlur
         stdDeviation="0.95"
         id="feGaussianBlur8011" />
    </filter>
    <filter
       x="-0.228"
       y="-0.228"
       width="1.456"
       height="1.456"
       color-interpolation-filters="sRGB"
       id="filter8005">
      <feGaussianBlur
         stdDeviation="0.95"
         id="feGaussianBlur8007" />
    </filter>
    <filter
       x="-0.228"
       y="-0.228"
       width="1.456"
       height="1.456"
       color-interpolation-filters="sRGB"
       id="filter8001">
      <feGaussianBlur
         stdDeviation="0.95"
         id="feGaussianBlur8003" />
    </filter>
    <filter
       x="-0.228"
       y="-0.228"
       width="1.456"
       height="1.456"
       color-interpolation-filters="sRGB"
       id="filter7997">
      <feGaussianBlur
         stdDeviation="0.95"
         id="feGaussianBlur7999" />
    </filter>
    <filter
       x="-0.228"
       y="-0.228"
       width="1.456"
       height="1.456"
       color-interpolation-filters="sRGB"
       id="filter7993">
      <feGaussianBlur
         stdDeviation="0.95"
         id="feGaussianBlur7995" />
    </filter>
    <filter
       x="-0.228"
       y="-0.228"
       width="1.456"
       height="1.456"
       color-interpolation-filters="sRGB"
       id="filter7989">
      <feGaussianBlur
         stdDeviation="0.95"
         id="feGaussianBlur7991" />
    </filter>
    <filter
       x="-0.228"
       y="-0.228"
       width="1.456"
       height="1.456"
       color-interpolation-filters="sRGB"
       id="filter7985">
      <feGaussianBlur
         stdDeviation="0.95"
         id="feGaussianBlur7987" />
    </filter>
    <filter
       x="-0.228"
       y="-0.228"
       width="1.456"
       height="1.456"
       color-interpolation-filters="sRGB"
       id="filter7981">
      <feGaussianBlur
         stdDeviation="0.95"
         id="feGaussianBlur7983" />
    </filter>
    <filter
       x="-0.228"
       y="-0.228"
       width="1.456"
       height="1.456"
       color-interpolation-filters="sRGB"
       id="filter7977">
      <feGaussianBlur
         stdDeviation="0.95"
         id="feGaussianBlur7979" />
    </filter>
    <filter
       x="-0.228"
       y="-0.228"
       width="1.456"
       height="1.456"
       color-interpolation-filters="sRGB"
       id="filter7973">
      <feGaussianBlur
         stdDeviation="0.95"
         id="feGaussianBlur7975" />
    </filter>
    <filter
       x="-0.228"
       y="-0.228"
       width="1.456"
       height="1.456"
       color-interpolation-filters="sRGB"
       id="filter7969">
      <feGaussianBlur
         stdDeviation="0.95"
         id="feGaussianBlur7971" />
    </filter>
    <filter
       x="-0.228"
       y="-0.228"
       width="1.456"
       height="1.456"
       color-interpolation-filters="sRGB"
       id="filter7965">
      <feGaussianBlur
         stdDeviation="0.95"
         id="feGaussianBlur7967" />
    </filter>
    <filter
       x="-0.228"
       y="-0.228"
       width="1.456"
       height="1.456"
       color-interpolation-filters="sRGB"
       id="filter7961">
      <feGaussianBlur
         stdDeviation="0.95"
         id="feGaussianBlur7963" />
    </filter>
    <filter
       x="-0.228"
       y="-0.228"
       width="1.456"
       height="1.456"
       color-interpolation-filters="sRGB"
       id="filter7957">
      <feGaussianBlur
         stdDeviation="0.95"
         id="feGaussianBlur7959" />
    </filter>
    <filter
       x="-0.228"
       y="-0.228"
       width="1.456"
       height="1.456"
       color-interpolation-filters="sRGB"
       id="filter7953">
      <feGaussianBlur
         stdDeviation="0.95"
         id="feGaussianBlur7955" />
    </filter>
    <filter
       x="-0.228"
       y="-0.228"
       width="1.456"
       height="1.456"
       color-interpolation-filters="sRGB"
       id="filter7949">
      <feGaussianBlur
         stdDeviation="0.95"
         id="feGaussianBlur7951" />
    </filter>
    <filter
       x="-0.228"
       y="-0.228"
       width="1.456"
       height="1.456"
       color-interpolation-filters="sRGB"
       id="filter7945">
      <feGaussianBlur
         stdDeviation="0.95"
         id="feGaussianBlur7947" />
    </filter>
    <filter
       x="-0.228"
       y="-0.228"
       width="1.456"
       height="1.456"
       color-interpolation-filters="sRGB"
       id="filter7941">
      <feGaussianBlur
         stdDeviation="0.95"
         id="feGaussianBlur7943" />
    </filter>
    <filter
       x="-0.228"
       y="-0.228"
       width="1.456"
       height="1.456"
       color-interpolation-filters="sRGB"
       id="filter7937">
      <feGaussianBlur
         stdDeviation="0.95"
         id="feGaussianBlur7939" />
    </filter>
    <filter
       x="-0.228"
       y="-0.228"
       width="1.456"
       height="1.456"
       color-interpolation-filters="sRGB"
       id="filter7933">
      <feGaussianBlur
         stdDeviation="0.95"
         id="feGaussianBlur7935" />
    </filter>
    <filter
       x="-0.228"
       y="-0.228"
       width="1.456"
       height="1.456"
       color-interpolation-filters="sRGB"
       id="filter7929">
      <feGaussianBlur
         stdDeviation="0.95"
         id="feGaussianBlur7931" />
    </filter>
    <filter
       x="-0.228"
       y="-0.228"
       width="1.456"
       height="1.456"
       color-interpolation-filters="sRGB"
       id="filter7925">
      <feGaussianBlur
         stdDeviation="0.95"
         id="feGaussianBlur7927" />
    </filter>
    <filter
       x="-0.228"
       y="-0.228"
       width="1.456"
       height="1.456"
       color-interpolation-filters="sRGB"
       id="filter7921">
      <feGaussianBlur
         stdDeviation="0.95"
         id="feGaussianBlur7923" />
    </filter>
    <filter
       x="-0.228"
       y="-0.228"
       width="1.456"
       height="1.456"
       color-interpolation-filters="sRGB"
       id="filter7917">
      <feGaussianBlur
         stdDeviation="0.95"
         id="feGaussianBlur7919" />
    </filter>
    <filter
       x="-0.228"
       y="-0.228"
       width="1.456"
       height="1.456"
       color-interpolation-filters="sRGB"
       id="filter7913">
      <feGaussianBlur
         stdDeviation="0.95"
         id="feGaussianBlur7915" />
    </filter>
    <filter
       x="-0.228"
       y="-0.228"
       width="1.456"
       height="1.456"
       color-interpolation-filters="sRGB"
       id="filter7909">
      <feGaussianBlur
         stdDeviation="0.95"
         id="feGaussianBlur7911" />
    </filter>
    <filter
       x="-0.228"
       y="-0.228"
       width="1.456"
       height="1.456"
       color-interpolation-filters="sRGB"
       id="filter7905">
      <feGaussianBlur
         stdDeviation="0.95"
         id="feGaussianBlur7907" />
    </filter>
    <filter
       x="-0.228"
       y="-0.228"
       width="1.456"
       height="1.456"
       color-interpolation-filters="sRGB"
       id="filter7901">
      <feGaussianBlur
         stdDeviation="0.95"
         id="feGaussianBlur7903" />
    </filter>
    <filter
       x="-0.228"
       y="-0.228"
       width="1.456"
       height="1.456"
       color-interpolation-filters="sRGB"
       id="filter7897">
      <feGaussianBlur
         stdDeviation="0.95"
         id="feGaussianBlur7899" />
    </filter>
    <filter
       x="-0.228"
       y="-0.228"
       width="1.456"
       height="1.456"
       color-interpolation-filters="sRGB"
       id="filter7893">
      <feGaussianBlur
         stdDeviation="0.95"
         id="feGaussianBlur7895" />
    </filter>
    <filter
       x="-0.228"
       y="-0.228"
       width="1.456"
       height="1.456"
       color-interpolation-filters="sRGB"
       id="filter7889">
      <feGaussianBlur
         stdDeviation="0.95"
         id="feGaussianBlur7891" />
    </filter>
    <filter
       x="-0.228"
       y="-0.228"
       width="1.456"
       height="1.456"
       color-interpolation-filters="sRGB"
       id="filter7885">
      <feGaussianBlur
         stdDeviation="0.95"
         id="feGaussianBlur7887" />
    </filter>
    <linearGradient
       id="linearGradient5415">
      <stop
         id="stop5417"
         style="stop-color:#000000;stop-opacity:1"
         offset="0" />
    </linearGradient>
    <filter
       x="-0.228"
       y="-0.228"
       width="1.456"
       height="1.456"
       color-interpolation-filters="sRGB"
       id="filter8045-4">
      <feGaussianBlur
         stdDeviation="0.95"
         id="feGaussianBlur8047-2" />
    </filter>
    <filter
       x="-0.228"
       y="-0.228"
       width="1.456"
       height="1.456"
       color-interpolation-filters="sRGB"
       id="filter8041-5">
      <feGaussianBlur
         stdDeviation="0.95"
         id="feGaussianBlur8043-3" />
    </filter>
    <filter
       x="-0.228"
       y="-0.228"
       width="1.456"
       height="1.456"
       color-interpolation-filters="sRGB"
       id="filter8037-0">
      <feGaussianBlur
         stdDeviation="0.95"
         id="feGaussianBlur8039-8" />
    </filter>
    <filter
       x="-0.228"
       y="-0.228"
       width="1.456"
       height="1.456"
       color-interpolation-filters="sRGB"
       id="filter8033-6">
      <feGaussianBlur
         stdDeviation="0.95"
         id="feGaussianBlur8035-2" />
    </filter>
    <filter
       x="-0.228"
       y="-0.228"
       width="1.456"
       height="1.456"
       color-interpolation-filters="sRGB"
       id="filter8029-1">
      <feGaussianBlur
         stdDeviation="0.95"
         id="feGaussianBlur8031-3" />
    </filter>
    <filter
       x="-0.228"
       y="-0.228"
       width="1.456"
       height="1.456"
       color-interpolation-filters="sRGB"
       id="filter8025-1">
      <feGaussianBlur
         stdDeviation="0.95"
         id="feGaussianBlur8027-9" />
    </filter>
    <filter
       x="-0.228"
       y="-0.228"
       width="1.456"
       height="1.456"
       color-interpolation-filters="sRGB"
       id="filter8021-9">
      <feGaussianBlur
         stdDeviation="0.95"
         id="feGaussianBlur8023-5" />
    </filter>
    <filter
       x="-0.228"
       y="-0.228"
       width="1.456"
       height="1.456"
       color-interpolation-filters="sRGB"
       id="filter8017-6">
      <feGaussianBlur
         stdDeviation="0.95"
         id="feGaussianBlur8019-9" />
    </filter>
    <filter
       x="-0.228"
       y="-0.228"
       width="1.456"
       height="1.456"
       color-interpolation-filters="sRGB"
       id="filter8013-2">
      <feGaussianBlur
         stdDeviation="0.95"
         id="feGaussianBlur8015-5" />
    </filter>
    <filter
       x="-0.228"
       y="-0.228"
       width="1.456"
       height="1.456"
       color-interpolation-filters="sRGB"
       id="filter8009-6">
      <feGaussianBlur
         stdDeviation="0.95"
         id="feGaussianBlur8011-8" />
    </filter>
    <filter
       x="-0.228"
       y="-0.228"
       width="1.456"
       height="1.456"
       color-interpolation-filters="sRGB"
       id="filter8005-4">
      <feGaussianBlur
         stdDeviation="0.95"
         id="feGaussianBlur8007-3" />
    </filter>
    <filter
       x="-0.228"
       y="-0.228"
       width="1.456"
       height="1.456"
       color-interpolation-filters="sRGB"
       id="filter8001-1">
      <feGaussianBlur
         stdDeviation="0.95"
         id="feGaussianBlur8003-4" />
    </filter>
    <filter
       x="-0.228"
       y="-0.228"
       width="1.456"
       height="1.456"
       color-interpolation-filters="sRGB"
       id="filter7997-9">
      <feGaussianBlur
         stdDeviation="0.95"
         id="feGaussianBlur7999-4" />
    </filter>
    <filter
       x="-0.228"
       y="-0.228"
       width="1.456"
       height="1.456"
       color-interpolation-filters="sRGB"
       id="filter7993-7">
      <feGaussianBlur
         stdDeviation="0.95"
         id="feGaussianBlur7995-7" />
    </filter>
    <filter
       x="-0.228"
       y="-0.228"
       width="1.456"
       height="1.456"
       color-interpolation-filters="sRGB"
       id="filter7989-9">
      <feGaussianBlur
         stdDeviation="0.95"
         id="feGaussianBlur7991-4" />
    </filter>
    <filter
       x="-0.228"
       y="-0.228"
       width="1.456"
       height="1.456"
       color-interpolation-filters="sRGB"
       id="filter7985-7">
      <feGaussianBlur
         stdDeviation="0.95"
         id="feGaussianBlur7987-0" />
    </filter>
    <filter
       x="-0.228"
       y="-0.228"
       width="1.456"
       height="1.456"
       color-interpolation-filters="sRGB"
       id="filter7981-0">
      <feGaussianBlur
         stdDeviation="0.95"
         id="feGaussianBlur7983-4" />
    </filter>
    <filter
       x="-0.228"
       y="-0.228"
       width="1.456"
       height="1.456"
       color-interpolation-filters="sRGB"
       id="filter7977-2">
      <feGaussianBlur
         stdDeviation="0.95"
         id="feGaussianBlur7979-3" />
    </filter>
    <filter
       x="-0.228"
       y="-0.228"
       width="1.456"
       height="1.456"
       color-interpolation-filters="sRGB"
       id="filter7973-9">
      <feGaussianBlur
         stdDeviation="0.95"
         id="feGaussianBlur7975-5" />
    </filter>
    <filter
       x="-0.228"
       y="-0.228"
       width="1.456"
       height="1.456"
       color-interpolation-filters="sRGB"
       id="filter7969-0">
      <feGaussianBlur
         stdDeviation="0.95"
         id="feGaussianBlur7971-7" />
    </filter>
    <filter
       x="-0.228"
       y="-0.228"
       width="1.456"
       height="1.456"
       color-interpolation-filters="sRGB"
       id="filter7965-8">
      <feGaussianBlur
         stdDeviation="0.95"
         id="feGaussianBlur7967-6" />
    </filter>
    <filter
       x="-0.228"
       y="-0.228"
       width="1.456"
       height="1.456"
       color-interpolation-filters="sRGB"
       id="filter7961-6">
      <feGaussianBlur
         stdDeviation="0.95"
         id="feGaussianBlur7963-2" />
    </filter>
    <filter
       x="-0.228"
       y="-0.228"
       width="1.456"
       height="1.456"
       color-interpolation-filters="sRGB"
       id="filter7957-7">
      <feGaussianBlur
         stdDeviation="0.95"
         id="feGaussianBlur7959-4" />
    </filter>
    <filter
       x="-0.228"
       y="-0.228"
       width="1.456"
       height="1.456"
       color-interpolation-filters="sRGB"
       id="filter7953-6">
      <feGaussianBlur
         stdDeviation="0.95"
         id="feGaussianBlur7955-8" />
    </filter>
    <filter
       x="-0.228"
       y="-0.228"
       width="1.456"
       height="1.456"
       color-interpolation-filters="sRGB"
       id="filter7949-4">
      <feGaussianBlur
         stdDeviation="0.95"
         id="feGaussianBlur7951-7" />
    </filter>
    <filter
       x="-0.228"
       y="-0.228"
       width="1.456"
       height="1.456"
       color-interpolation-filters="sRGB"
       id="filter7945-1">
      <feGaussianBlur
         stdDeviation="0.95"
         id="feGaussianBlur7947-2" />
    </filter>
    <filter
       x="-0.228"
       y="-0.228"
       width="1.456"
       height="1.456"
       color-interpolation-filters="sRGB"
       id="filter7941-2">
      <feGaussianBlur
         stdDeviation="0.95"
         id="feGaussianBlur7943-9" />
    </filter>
    <filter
       x="-0.228"
       y="-0.228"
       width="1.456"
       height="1.456"
       color-interpolation-filters="sRGB"
       id="filter7937-5">
      <feGaussianBlur
         stdDeviation="0.95"
         id="feGaussianBlur7939-2" />
    </filter>
    <filter
       x="-0.228"
       y="-0.228"
       width="1.456"
       height="1.456"
       color-interpolation-filters="sRGB"
       id="filter7933-6">
      <feGaussianBlur
         stdDeviation="0.95"
         id="feGaussianBlur7935-5" />
    </filter>
    <filter
       x="-0.228"
       y="-0.228"
       width="1.456"
       height="1.456"
       color-interpolation-filters="sRGB"
       id="filter7929-7">
      <feGaussianBlur
         stdDeviation="0.95"
         id="feGaussianBlur7931-7" />
    </filter>
    <filter
       x="-0.228"
       y="-0.228"
       width="1.456"
       height="1.456"
       color-interpolation-filters="sRGB"
       id="filter7925-7">
      <feGaussianBlur
         stdDeviation="0.95"
         id="feGaussianBlur7927-5" />
    </filter>
    <filter
       x="-0.228"
       y="-0.228"
       width="1.456"
       height="1.456"
       color-interpolation-filters="sRGB"
       id="filter7921-0">
      <feGaussianBlur
         stdDeviation="0.95"
         id="feGaussianBlur7923-2" />
    </filter>
    <filter
       x="-0.228"
       y="-0.228"
       width="1.456"
       height="1.456"
       color-interpolation-filters="sRGB"
       id="filter7917-1">
      <feGaussianBlur
         stdDeviation="0.95"
         id="feGaussianBlur7919-3" />
    </filter>
    <filter
       x="-0.228"
       y="-0.228"
       width="1.456"
       height="1.456"
       color-interpolation-filters="sRGB"
       id="filter7913-5">
      <feGaussianBlur
         stdDeviation="0.95"
         id="feGaussianBlur7915-5" />
    </filter>
    <filter
       x="-0.228"
       y="-0.228"
       width="1.456"
       height="1.456"
       color-interpolation-filters="sRGB"
       id="filter7909-7">
      <feGaussianBlur
         stdDeviation="0.95"
         id="feGaussianBlur7911-3" />
    </filter>
    <filter
       x="-0.228"
       y="-0.228"
       width="1.456"
       height="1.456"
       color-interpolation-filters="sRGB"
       id="filter7905-9">
      <feGaussianBlur
         stdDeviation="0.95"
         id="feGaussianBlur7907-7" />
    </filter>
    <filter
       x="-0.228"
       y="-0.228"
       width="1.456"
       height="1.456"
       color-interpolation-filters="sRGB"
       id="filter7901-5">
      <feGaussianBlur
         stdDeviation="0.95"
         id="feGaussianBlur7903-3" />
    </filter>
    <filter
       x="-0.228"
       y="-0.228"
       width="1.456"
       height="1.456"
       color-interpolation-filters="sRGB"
       id="filter7897-8">
      <feGaussianBlur
         stdDeviation="0.95"
         id="feGaussianBlur7899-6" />
    </filter>
    <filter
       x="-0.228"
       y="-0.228"
       width="1.456"
       height="1.456"
       color-interpolation-filters="sRGB"
       id="filter7893-4">
      <feGaussianBlur
         stdDeviation="0.95"
         id="feGaussianBlur7895-8" />
    </filter>
    <filter
       x="-0.228"
       y="-0.228"
       width="1.456"
       height="1.456"
       color-interpolation-filters="sRGB"
       id="filter7889-3">
      <feGaussianBlur
         stdDeviation="0.95"
         id="feGaussianBlur7891-2" />
    </filter>
    <filter
       x="-0.228"
       y="-0.228"
       width="1.456"
       height="1.456"
       color-interpolation-filters="sRGB"
       id="filter7885-0">
      <feGaussianBlur
         stdDeviation="0.95"
         id="feGaussianBlur7887-2" />
    </filter>
    <linearGradient
       id="linearGradient5415-2">
      <stop
         id="stop5417-7"
         style="stop-color:#000000;stop-opacity:1"
         offset="0" />
    </linearGradient>
    <marker
       refX="0"
       refY="0"
       orient="auto"
       id="TriangleInM"
       style="overflow:visible">
      <path
         d="m 5.77,0 -8.65,5 0,-10 8.65,5 z"
         transform="scale(-0.4,-0.4)"
         id="path4129"
         style="fill-rule:evenodd;stroke:#000000;stroke-width:1pt" />
    </marker>
    <marker
       refX="0"
       refY="0"
       orient="auto"
       id="Arrow2Mend"
       style="overflow:visible">
      <path
         d="M 8.7185878,4.0337352 -2.2072895,0.01601326 8.7185884,-4.0017078 c -1.7454984,2.3720609 -1.7354408,5.6174519 -6e-7,8.035443 z"
         transform="scale(-0.6,-0.6)"
         id="path4020"
         style="fill-rule:evenodd;stroke-width:0.625;stroke-linejoin:round" />
    </marker>
    <marker
       refX="0"
       refY="0"
       orient="auto"
       id="Club"
       style="overflow:visible">
      <path
         d="m -1.5971367,-7.0977635 c -1.8892507,0 -3.426382,1.5371314 -3.426382,3.4263822 0,0.6566798 0.2383531,1.2269257 0.5594092,1.7481542 -0.038751,0.032111 -0.079672,0.058463 -0.1165436,0.093235 -0.6224234,-0.8549928 -1.5893983,-1.4451409 -2.7271199,-1.4451409 -1.8892515,-1e-7 -3.426382,1.5371314 -3.426382,3.42638214 0,1.88925076 1.5371305,3.42638216 3.426382,3.42638216 0.9934462,0 1.868619,-0.4420611 2.4940326,-1.1188187 -0.124687,0.3548915 -0.2097783,0.7214874 -0.2097783,1.1188187 0,1.8892506 1.5371313,3.4263822 3.426382,3.4263822 1.88925064,0 3.4263821,-1.5371316 3.4263821,-3.4263822 0,-0.7933959 -0.3155586,-1.4938285 -0.7691878,-2.0744763 C 2.4152718,1.7663868 3.7718375,2.2973711 4.7661444,3.8340272 4.0279463,3.0958289 3.5540908,1.7534117 3.5540908,-0.05852936 l -0.6293354,-0.04661745 0.5827179,-0.0233087 c 0,-1.81194109 0.4505466,-3.15435829 1.188745,-3.89255659 -0.9590906,1.4822308 -2.2571634,2.0263625 -3.5662345,2.3075635 0.4041964,-0.5619092 0.6992616,-1.213407 0.6992616,-1.9579327 0,-1.8892506 -1.53713146,-3.4263822 -3.4263821,-3.4263822 z"
         transform="scale(0.6,0.6)"
         id="path4222"
         style="fill-rule:evenodd;stroke:#000000;stroke-width:0.74587913pt" />
    </marker>
    <linearGradient
       id="linearGradient7384">
      <stop
         id="stop7386"
         style="stop-color:#000000;stop-opacity:1"
         offset="0" />
    </linearGradient>
    <linearGradient
       id="linearGradient7986">
      <stop
         id="stop7988"
         style="stop-color:#000000;stop-opacity:1"
         offset="0" />
    </linearGradient>
    <linearGradient
       id="linearGradient5415-21">
      <stop
         id="stop5417-5"
         style="stop-color:#000000;stop-opacity:1"
         offset="0" />
    </linearGradient>
    <marker
       refX="0"
       refY="0"
       orient="auto"
       id="TriangleInM-5"
       style="overflow:visible">
      <path
         d="m 5.77,0 -8.65,5 0,-10 8.65,5 z"
         transform="scale(-0.4,-0.4)"
         id="path4129-9"
         style="fill-rule:evenodd;stroke:#000000;stroke-width:1pt" />
    </marker>
    <marker
       refX="0"
       refY="0"
       orient="auto"
       id="Arrow2Mend-0"
       style="overflow:visible">
      <path
         d="M 8.7185878,4.0337352 -2.2072895,0.01601326 8.7185884,-4.0017078 c -1.7454984,2.3720609 -1.7354408,5.6174519 -6e-7,8.035443 z"
         transform="scale(-0.6,-0.6)"
         id="path4020-1"
         style="fill-rule:evenodd;stroke-width:0.625;stroke-linejoin:round" />
    </marker>
    <marker
       refX="0"
       refY="0"
       orient="auto"
       id="Club-5"
       style="overflow:visible">
      <path
         d="m -1.5971367,-7.0977635 c -1.8892507,0 -3.426382,1.5371314 -3.426382,3.4263822 0,0.6566798 0.2383531,1.2269257 0.5594092,1.7481542 -0.038751,0.032111 -0.079672,0.058463 -0.1165436,0.093235 -0.6224234,-0.8549928 -1.5893983,-1.4451409 -2.7271199,-1.4451409 -1.8892515,-1e-7 -3.426382,1.5371314 -3.426382,3.42638214 0,1.88925076 1.5371305,3.42638216 3.426382,3.42638216 0.9934462,0 1.868619,-0.4420611 2.4940326,-1.1188187 -0.124687,0.3548915 -0.2097783,0.7214874 -0.2097783,1.1188187 0,1.8892506 1.5371313,3.4263822 3.426382,3.4263822 1.88925064,0 3.4263821,-1.5371316 3.4263821,-3.4263822 0,-0.7933959 -0.3155586,-1.4938285 -0.7691878,-2.0744763 C 2.4152718,1.7663868 3.7718375,2.2973711 4.7661444,3.8340272 4.0279463,3.0958289 3.5540908,1.7534117 3.5540908,-0.05852936 l -0.6293354,-0.04661745 0.5827179,-0.0233087 c 0,-1.81194109 0.4505466,-3.15435829 1.188745,-3.89255659 -0.9590906,1.4822308 -2.2571634,2.0263625 -3.5662345,2.3075635 0.4041964,-0.5619092 0.6992616,-1.213407 0.6992616,-1.9579327 0,-1.8892506 -1.53713146,-3.4263822 -3.4263821,-3.4263822 z"
         transform="scale(0.6,0.6)"
         id="path4222-2"
         style="fill-rule:evenodd;stroke:#000000;stroke-width:0.74587913pt" />
    </marker>
    <linearGradient
       id="linearGradient7384-4">
      <stop
         id="stop7386-6"
         style="stop-color:#000000;stop-opacity:1"
         offset="0" />
    </linearGradient>
    <linearGradient
       id="linearGradient7986-8">
      <stop
         id="stop7988-4"
         style="stop-color:#000000;stop-opacity:1"
         offset="0" />
    </linearGradient>
    <linearGradient
       x1="85.002998"
       y1="30.383581"
       x2="99.43129"
       y2="30.383581"
       id="linearGradient5294"
       xlink:href="#linearGradient5288"
       gradientUnits="userSpaceOnUse" />
    <linearGradient
       x1="85.002998"
       y1="30.383581"
       x2="99.43129"
       y2="30.383581"
       id="linearGradient3840"
       xlink:href="#linearGradient3834"
       gradientUnits="userSpaceOnUse" />
    <linearGradient
       id="linearGradient3834">
      <stop
         id="stop3836"
         style="stop-color:#000000;stop-opacity:1"
         offset="0" />
      <stop
         id="stop3838"
         style="stop-color:#000000;stop-opacity:0"
         offset="1" />
    </linearGradient>
    <linearGradient
       id="linearGradient5288">
      <stop
         id="stop5290"
         style="stop-color:#000000;stop-opacity:1"
         offset="0" />
      <stop
         id="stop5292"
         style="stop-color:#000000;stop-opacity:0"
         offset="1" />
    </linearGradient>
  </defs>
  <metadata
     id="metadata7">
    <rdf:RDF>
      <cc:Work
         rdf:about="">
        <dc:format>image/svg+xml</dc:format>
        <dc:type
           rdf:resource="http://purl.org/dc/dcmitype/StillImage" />
        <dc:title></dc:title>
      </cc:Work>
    </rdf:RDF>
  </metadata>
  <rect
     width="226.99782"
     height="226.99782"
     ry="8.8276939"
     x="29.483309"
     y="199.78139"
     id="rect3300"
     style="fill:none;stroke:#000000;stroke-width:4.72023249;stroke-linecap:butt;stroke-linejoin:round;stroke-miterlimit:4;stroke-opacity:1;stroke-dasharray:none" />
  <rect
     width="226.99782"
     height="226.99782"
     ry="8.8276939"
     x="270.86887"
     y="200.61736"
     id="rect3300-6"
     style="fill:none;stroke:#000000;stroke-width:4.72023249;stroke-linecap:butt;stroke-linejoin:round;stroke-miterlimit:4;stroke-opacity:1;stroke-dasharray:none" />
  <rect
     width="226.99782"
     height="226.99782"
     ry="8.8276939"
     x="510.44739"
     y="201.21184"
     id="rect3300-4"
     style="fill:none;stroke:#000000;stroke-width:4.72023249;stroke-linecap:butt;stroke-linejoin:round;stroke-miterlimit:4;stroke-opacity:1;stroke-dasharray:none" />
  <rect
     width="226.99782"
     height="226.99782"
     ry="8.8276939"
     x="755.97083"
     y="201.80634"
     id="rect3300-0"
     style="fill:none;stroke:#000000;stroke-width:4.72023249;stroke-linecap:butt;stroke-linejoin:round;stroke-miterlimit:4;stroke-opacity:1;stroke-dasharray:none" />
  <text
     x="766.87683"
     y="252.12115"
     id="text3024"
     xml:space="preserve"
     style="font-size:20.49250793px;font-style:normal;font-weight:normal;line-height:125%;letter-spacing:0px;word-spacing:0px;fill:#000000;fill-opacity:1;stroke:none;font-family:Sans"><tspan
       x="766.87683"
       y="252.12115"
       id="tspan3026"
       style="font-size:10.24625397px;font-style:normal;font-variant:normal;font-weight:normal;font-stretch:normal;font-family:DejaVu Sans Mono;-inkscape-font-specification:DejaVu Sans Mono">member@netz39:/lounge$modprobe -l</tspan><tspan
       x="766.87683"
       y="264.92899"
       id="tspan3028"
       style="font-size:10.24625397px;font-style:normal;font-variant:normal;font-weight:normal;font-stretch:normal;font-family:DejaVu Sans Mono;-inkscape-font-specification:DejaVu Sans Mono">magdeburg/l32/hackerspace.ko</tspan><tspan
       x="766.87683"
       y="277.73679"
       id="tspan3032"
       style="font-size:10.24625397px;font-style:normal;font-variant:normal;font-weight:normal;font-stretch:normal;font-family:DejaVu Sans Mono;-inkscape-font-specification:DejaVu Sans Mono">magdeburg/l32/members.ko</tspan><tspan
       x="766.87683"
       y="290.54462"
       id="tspan3067"
       style="font-size:10.24625397px;font-style:normal;font-variant:normal;font-weight:normal;font-stretch:normal;font-family:DejaVu Sans Mono;-inkscape-font-specification:DejaVu Sans Mono">stuff/tools.ko</tspan><tspan
       x="766.87683"
       y="303.35245"
       id="tspan3034"
       style="font-size:10.24625397px;font-style:normal;font-variant:normal;font-weight:normal;font-stretch:normal;font-family:DejaVu Sans Mono;-inkscape-font-specification:DejaVu Sans Mono">stuff/foobars.ko</tspan><tspan
       x="766.87683"
       y="316.16025"
       id="tspan3036"
       style="font-size:10.24625397px;font-style:normal;font-variant:normal;font-weight:normal;font-stretch:normal;font-family:DejaVu Sans Mono;-inkscape-font-specification:DejaVu Sans Mono">member@netz39:/lounge$ █</tspan></text>
  <text
     x="104.66058"
     y="566.83759"
     id="text4355"
     xml:space="preserve"
     style="font-size:40px;font-style:normal;font-weight:normal;line-height:125%;letter-spacing:0px;word-spacing:0px;fill:#000000;fill-opacity:1;stroke:none;font-family:Sans"><tspan
       x="104.66058"
       y="566.83759"
       id="tspan4357"
       style="font-size:144px">Netz39 e.V.</tspan></text>
  <text
     x="38.025681"
     y="143.71172"
     id="text4359"
     xml:space="preserve"
     style="font-size:40px;font-style:normal;font-weight:normal;line-height:125%;letter-spacing:0px;word-spacing:0px;fill:#000000;fill-opacity:1;stroke:none;font-family:Sans"><tspan
       x="38.025681"
       y="143.71172"
       id="tspan4361"
       style="font-size:144px;font-style:normal;font-variant:normal;font-weight:normal;font-stretch:normal;font-family:DejaVu Sans;-inkscape-font-specification:DejaVu Sans">Hackerspace</tspan></text>
  <rect
     width="952.9021"
     height="166.53523"
     ry="9.3509092"
     x="28.498007"
     y="21.134247"
     id="rect4454"
     style="fill:none;stroke:#000000;stroke-width:5;stroke-linejoin:round;stroke-miterlimit:4;stroke-opacity:1;stroke-dasharray:none" />
  <rect
     width="952.9021"
     height="151.39565"
     ry="9.3509092"
     x="29.388569"
     y="442.37039"
     id="rect4456"
     style="fill:none;stroke:#000000;stroke-width:5;stroke-linejoin:round;stroke-miterlimit:4;stroke-opacity:1;stroke-dasharray:none" />
  <g
     transform="translate(670.59372,40.965885)"
     id="g3344">
    <g
       transform="matrix(0.24301623,-0.13956,0.08056013,0.30065454,-461.5543,70.616974)"
       id="layer1">
      <path
         d="m 32.891406,980.07208 c -2.98363,-1.8829 -2.37122,-4.8563 -0.5,-6.3693 0.6875,-0.5559 5.75,-3.4624 11.25,-6.4588 7.01605,-3.8224 41.800449,-16.92605 48.731246,-20.32158 -2.74453,6.31688 -7.183957,-6.05505 0.0115,-11.0967 4.06576,-2.59421 6.12005,-3.2189 10.286438,-4.5314 3.44653,-0.86026 10.59817,-3.23063 14.45413,-4.22275 7.67239,-2.94485 10.87708,-3.56592 21.97982,-7.08023 4.62345,-1.34339 65.8551,-23.68991 90.03684,-32.07615 10.41002,-3.6102 34.80798,-12.28687 50.5,-17.95937 5.5,-1.98819 13.15,-4.68496 17,-5.99282 3.85,-1.30785 11.4379,-3.97913 16.862,-5.93618 5.4241,-1.95704 9.94624,-3.55825 10.0492,-3.55825 0.10296,0 -0.008,-1.66961 -0.24595,-3.71024 -0.65739,-5.631 1.8603,-23.15128 4.13713,-28.78976 2.42867,-6.0145 6.60412,-10.75348 12.19762,-13.77631 3.6011,-1.9461 6.39815,-2.1735 29.5,-2.87131 29.46933,-0.89014 43.5687,-2.2393 56.3712,-5.39413 23.49699,-5.79019 31.90773,-9.3682 49.20057,-20.93039 5.43039,-3.63082 7.44511,-4.60654 12.33387,-7.21903 5.30463,-2.624 12.1783,-5.15091 18.57684,-7.2999 2.7793,-0.59 5.50559,-2.00638 7.46144,-2.5863 1.90124,-0.56373 6.03108,-1.74704 9.05608,-3.1548 3.025,-1.40775 7.075,-2.90493 9,-3.32707 1.925,-0.42214 7.1,-2.086 11.5,-3.69746 4.4,-1.61147 12.72498,-4.58503 18.49998,-6.60791 5.775,-2.02289 11.85,-4.15202 13.5,-4.73141 1.65,-0.57938 8.4,-2.3976 15,-4.04047 14.2682,-3.55164 12.5469,-3.11761 67.5,-17.01941 32.224,-8.15187 44.5151,-10.87294 47.4159,-10.49718 6.8606,0.88872 11.8861,5.42668 20.6846,18.67791 1.2148,1.82947 2.8817,2.32182 10.4228,3.07838 9.2418,0.92719 30.9188,5.20622 35.6387,7.03508 2.6578,1.0298 2.6622,1.04973 2.7661,12.44658 l 0.104,11.41513 -2.4811,0 c -1.3646,0 -4.4093,-0.64224 -6.766,-1.42717 -9.2265,-3.07303 -23.5862,-6.58272 -29.4332,-7.19387 l -6.1419,-0.64193 c -2.1418,5.91257 -4.9738,9.36921 -7.1977,11.32746 -17.5148,9.13191 -32.4505,15.846 -48.1,23.17078 -16.8979,8.1381 -34.7317,16.93948 -38.789,18.71683 -17.1673,8.03074 -49.3466,21.90328 -57.4691,24.0479 -0.9535,0 -3.6283,0.97448 -5.9439,2.16552 -2.3156,1.19103 -5.7852,2.50516 -7.7102,2.9203 -3.742,0.80696 -15.87139,5.33972 -30.49998,11.39785 -9.71665,4.02396 -9.96376,4.08655 -31.38361,7.94858 -37.30646,6.72643 -46.2718,10.70521 -84.62815,37.55759 -36.67109,25.67258 -37.28605,26.01016 -47.38275,26.01016 -11.50833,0 -21.77821,-6.2261 -29.54788,-17.91335 l -5.55465,-8.08376 -5.11479,1.77284 c -70.01133,23.21232 -135.2458,45.24256 -202.47662,69.0545 -6.48837,1.7436 -16.7887,6.837 -18.38265,6.7904 -6.40642,-0.2033 -7.15581,-1.2435 -11.326448,-6.1374 -4.25988,1.2216 -9.544457,3.153 -10.026777,3.2393 -13.686659,5.3129 -16.572289,5.9836 -29.412979,10.6192 -10.90775,2.1119 -21.92617,6.5196 -25.51269,3.2618 z m 36.25756,-12.8607 c 6.203059,-3.6936 -19.72554,6.7894 -20.61542,7.1309 -2.17436,0.7279 -18.64024,6.7709 -10.29221,5.5051 1.15933,-0.1758 28.03883,-10.9277 30.90763,-12.636 z m -22.85591,7.1058 c 3.46658,-1.7084 8.5891,-3.6645 17.96954,-7.7876 4.34436,-2.1571 14.323759,-7.5851 19.323629,-9.6086 22.524455,-9.11796 21.064065,-10.42032 4.83589,-4.0446 -6.01639,1.6031 -15.696679,5.892 -19.901899,7.1183 -5.18655,1.5202 -9.71066,3.1699 -13.6536,4.6394 -5.06755,1.5434 -9.28463,3.4078 -11.92789,4.7231 -4.8975,2.1043 -7.84252,3.7127 -9.82022,6.1342 -2.12872,3.5502 2.73361,3.2667 4.5229,2.5452 2.41404,-1.2254 6.74103,-2.6688 8.65165,-3.7194 z m 46.640896,-17.3674 c 4.35814,-1.5702 8.017558,-2.6461 8.286358,-3.4711 0.37943,-1.1645 0.93044,-2.26309 -0.16629,-1.4054 -0.77694,0.6076 -5.012618,2.3552 -9.412618,3.8836 -9.069257,3.1503 -18.935736,7.616 -19.681786,8.8231 -0.27755,0.4491 -0.62411,1.0318 2.54796,-0.2484 3.172059,-1.2802 14.068229,-6.0115 18.426376,-7.5818 z m 52.453898,-15.01766 c -0.67996,0.055 -3.44264,0.67257 -5.36764,0.75507 -4.70369,1.00243 -6.02064,1.59684 -8.56025,2.65509 -2.7788,0.75762 -19.58696,8.6629 -19.58696,9.5634 0,0.3864 1.24948,1.1426 0.92468,1.989 -0.45054,1.1741 14.05047,-6.01875 22.15794,-8.80374 1.88644,-1.04835 17.63799,-4.22672 10.43223,-6.15882 z m -15.56788,0.0961 c 4.125,-1.97258 9.71399,-3.90566 11.54697,-4.29572 3.58859,-0.76367 12.8834,-3.77058 46.77446,-15.58189 11.825,-4.12111 24.425,-8.50356 28,-9.73879 9.36125,-3.24343 18.65951,-6.66337 28,-9.9658 30.72505,-10.99658 59.74752,-21.34442 90.83374,-32.60427 5.68355,-2.05843 12.43211,-5.2345 14.9968,-7.05792 l 4.66307,-3.31531 -3.57982,0 c -5.31036,0 -20.87677,5.28228 -113.91379,38.6553 -14.575,5.22816 -32.575,11.67753 -40,14.33193 -7.425,2.6544 -22.5,8.05767 -33.5,12.00725 -11,3.94959 -19.96429,7.25197 -22.5,7.73548 -7.57573,2.59598 -32.55467,5.79081 -38.5323,7.87714 3.39156,1.06735 5.35256,3.59531 6.71182,5.67057 0.57679,1.72864 1.80456,4.5438 1.45163,6.68029 -0.19209,1.1628 7.601,-5.39 11.72599,-7.36259 z m -33.510088,1.249 c 1.57816,-5.87682 6.010508,-6.2971 26.579618,-12.68208 3.31572,-1.02925 17.73209,-5.54438 5.76556,-3.22783 -7.59846,1.47096 -29.395608,10.05283 -32.218388,10.18733 -8.853337,0.42188 -2.81569,15.73554 -0.12679,5.72258 z M 154.7794,924.88548 c 5.4241,-1.97083 13.687,-4.90769 18.362,-6.52633 4.675,-1.61865 10.075,-3.58901 12,-4.37857 3.0664,-1.25772 34.44901,-12.54819 53,-19.06773 3.575,-1.25639 11.45,-4.07372 17.5,-6.26074 6.05,-2.18701 18.2,-6.50014 27,-9.58473 8.8,-3.08458 18.7,-6.55883 22,-7.72055 3.3,-1.16171 9.00904,-3.1603 12.68675,-4.44131 3.67772,-1.281 7.4913,-2.44446 9.86358,-3.51143 2.37229,-1.06696 8.91108,-3.72706 13.14169,-4.98536 9.83601,-3.93475 14.7162,-5.54831 24.07012,-8.87379 1.428,-0.0387 5.13786,-1.59344 6.23786,-2.06613 -9.46401,-0.93447 -50.84305,16.95392 -51.79674,14.588 14.2969,-5.60732 25.67907,-11.0056 8.5442,-5.03857 -4.61823,1.12694 -9.01546,2.73263 -12.74746,4.06993 -3.84153,1.37655 -14.07803,4.88426 -22.72895,7.84799 -8.65092,2.96373 -16.18094,5.66794 -16.73338,6.00937 -8.16796,2.87993 -13.27441,4.93205 -28.27105,10.20139 -14.99664,5.26934 -33.34162,11.71728 -40.76662,14.32875 -7.425,2.61147 -22.69051,8.08816 -34,11.94914 -27.75753,9.47624 -30.59319,10.5754 -33.37903,13.23973 1.39345,0.46409 2.29486,-0.6789 3.36882,1.28519 0.74149,1.38549 1.67173,2.51908 2.06719,2.51908 0.39546,0 5.15692,-1.61251 10.58102,-3.58333 z m 220.24185,-11.17114 c 7.07625,-2.43213 11.81638,-11.06824 12.20944,-15.50334 1.75644,-8.6617 0.2492,-22.10481 0.15742,-23.07537 -0.78326,-8.12565 -6.51538,-20.43634 -8.67359,-24.41464 -2.47844,-0.83695 -23.3155,5.04463 -20.95275,6.80961 1.59137,1.16363 37.54003,-10.46832 9.43887,1.32755 -1.29257,1.29339 -16.16369,6.77521 -18.14554,7.38858 -18.2957,8.01601 37.86483,-12.21721 27.8653,-6.66695 -3.59456,1.99517 -35.32901,12.28881 -36.82097,13.63902 -1.10748,1.00225 -5.55878,2.73064 -7.57686,3.68654 -2.01808,0.95589 -0.004,2.76341 0.92593,2.78208 10.18771,-3.14563 18.66422,-6.84224 25.46251,-9.07603 4.59882,-1.55657 19.28191,-7.23494 21.87717,-7.40237 3.24988,4.19308 3.51615,7.31119 4.22822,14.65264 0.46781,6.1881 1.24754,14.79204 -0.23618,20.82143 -0.8775,2.81775 -4.06884,13.36236 -13.37803,13.41253 -6.28347,2.02133 -19.32912,-8.94963 -21.55505,-10.10447 -2.39427,-1.24216 -2.52915,-1.21245 -1.55768,0.34311 1.13969,1.82495 4.93903,6.28299 9.99372,9.05079 4.38887,2.12494 10.24927,4.16077 16.73807,2.32929 z m -48.42747,-31.16041 c 2.72441,-0.0441 2.48582,-3.63348 -0.0558,-3.68675 -0.93004,-0.0195 -26.97037,9.6322 -27.31029,10.18221 -0.33992,0.55 -12.37432,4.66181 -13.77947,4.66181 -1.40516,0 -7.47409,1.52763 -9.47398,2.6231 -5.49231,3.0085 -124.72291,44.42844 -124.72291,43.15227 -4.61592,1.3944 -7.52916,6.44565 11.86789,-0.0928 55.03322,-18.32193 111.75371,-38.06143 163.47456,-56.83984 z m 73.10908,16.42138 c 2.04504,-1.92873 4.30794,-3.50676 5.02868,-3.50676 0.72074,0 1.67029,-0.56323 2.11012,-1.25163 0.43983,-0.6884 2.00248,-1.87086 3.47255,-2.6277 2.44794,-1.26027 9.80972,-6.78783 14.07714,-10.56976 0.9625,-0.853 2.03302,-1.55091 2.37893,-1.55091 0.34591,0 3.83341,-2.16461 7.75,-4.81024 8.99132,-6.07358 21.55031,-12.92698 26.95974,-14.71183 2.28873,-0.75518 6.64482,-2.26693 9.68019,-3.35945 6.94814,-2.50084 24.38288,-6.09033 33.20203,-6.83567 5.93488,-1.06965 14.33456,-3.08318 21.50524,-6.67696 6.29198,-3.00737 10.7064,-9.42886 5.55102,-29.64866 -5.53252,-25.95759 -22.9248,-43.68928 -30.65562,-40.48164 -7.41442,2.95353 -17.13685,6.09584 -23.12491,9.43036 -8.50317,4.67684 -15.64989,8.03995 -18.33022,9.34805 -10.61807,4.67411 -13.61595,7.18805 -24.1664,10.26849 -3.88081,1.00786 -7.24313,1.85739 -13.04036,3.04166 -5.23926,0.76302 -11.62408,1.91762 -16.45964,2.44448 -6.6,0.72233 -14.13559,1.15611 -16.75,1.12083 -30.52632,-0.3817 -30.44187,-1.44675 -23.91417,4.70043 8.28877,6.9043 9.97631,10.64831 13.86019,16.28582 7.40754,11.24228 9.74382,21.28996 13.20283,28.64448 3.2311,4.39964 9.88552,0.53069 10.60115,0.24152 2.0625,-0.9536 9.5452,-4.31475 10.96041,-5.16862 2.65593,-1.60248 32.67133,-14.99016 40.94946,-17.9954 5.99779,-1.99323 19.53761,-4.56601 21.31856,-2.43674 0,1.63263 -18.33217,4.22113 -24.61168,7.03593 -2.75,1.2327 -16.02906,5.5991 -16.85406,6.30789 -3.18552,2.15951 -7.9404,4.31931 -11.51269,5.7538 -7.47659,3.52101 -4.70006,2.42238 -9.57143,4.46816 -4.68756,1.50184 -7.88902,4.13605 -10.53982,5.3456 -4.62585,1.08617 -6.10522,1.55711 -6.83046,2.55787 -1.10508,0.42406 0.40405,6.20058 0.79448,8.47507 1.74427,10.16136 0.67914,21.3116 -2.59217,27.1359 -1.10583,1.96883 -2.0106,3.80685 -2.0106,4.08447 0,0.99908 3.91652,-1.62117 7.56151,-5.05884 z m 86.32557,-76.93036 c 8.69704,-3.19143 27.13403,-6.64086 35.1787,-4.65192 10.14861,2.50911 -1.54701,1.001 -5.30876,0.93475 -4.1927,-0.56031 -9.05542,0.78477 -15.08604,1.13662 -6.47952,0.37804 -27.55681,8.6829 -14.7839,2.58055 z m -129.79194,68.22538 c 2.34336,-2.45069 28.74761,-7.36924 24.0363,-14.22712 -15.86163,5.15587 -31.97269,11.88381 -38.80381,14.07035 2.12127,4.89236 6.85798,5.87682 8.40995,7.87267 1.11976,0.95842 11.54128,8.47611 14.51284,9.72121 1.97509,0.82758 -13.43999,-11.91032 -8.15528,-17.43711 z m 6.3213,-46.26033 c 4.0592,-0.91797 10.40903,-2.03351 11.37179,-2.99627 -1.69785,-11.00826 -6.62724,-15.45488 -11.78294,-22.32275 -19.41939,-22.17196 -34.98469,-0.92448 -34.53266,14.18078 -1.06454,3.77022 -1.05702,5.77535 -0.58023,10.77535 -0.0162,3.78475 1.76188,9.0199 5.31177,7.88755 11.13962,-3.51287 22.14247,-5.31764 30.21227,-7.52466 z m 191.60917,-8.90143 c 9.7868,-3.60913 9.2222,-3.02955 19.8952,-8.56752 15.3397,-25.83589 -11.2974,-68.47404 -26.06658,-71.86391 -3.38556,-0.63584 -23.54732,6.73635 -26.35415,8.79136 2.37284,2.00734 4.91016,4.6105 7.25,6.40941 10.62663,10.89012 18.58248,24.7114 20.4258,36.59064 0.73793,4.8643 1.21873,6.48081 1.40143,12.45331 -0.073,7.05108 -0.3928,10.26587 -1.24,13.21965 -1.74942,6.23043 -0.21981,3.81821 4.6883,2.96706 z m 61.8389,-23.83309 c 6.3733,-8.42958 3.2774,-22.18907 2.7044,-26.55821 -1.5498,-0.0174 -16.0355,5.76929 -25.1658,9.00614 0.6849,7.06275 1.8766,20.00949 -4.1569,28.85249 7.6754,-2.68216 21.1418,-9.06053 26.6183,-11.30042 z m 104.0846,-48.78662 c 4.9956,-3.0172 6.0048,-7.83431 7.4969,-12.67327 1.5475,-3.68163 -0.1997,-9.7535 -1.0755,-13.02349 -1.3602,-5.27661 -5.0365,-8.45902 -5.7841,-10.1068 -1.3274,-2.59422 -4.8139,-7.07395 -7.1288,-9.34723 l -4.7152,-4.63045 c 9.7518,12.12948 11.1509,15.83436 12.2952,18.57493 1.9097,4.57399 2.9449,10.78931 1.4717,11.53104 -1.5499,-6.25118 -1.2996,-6.89437 -3.4036,-13.20806 -8.0997,-13.77133 -9.2604,-12.57336 -11.7269,-16.51579 -1.4619,-1.56067 0.093,-4.57508 -13.017,-0.0535 -21.8039,5.21566 -43.2673,11.07057 -64.0404,16.49779 -0.7585,0.98186 -16.2536,3.08098 -24.2417,6.29302 6.0573,2.39911 9.5777,7.76737 14.1401,12.01664 3.7219,3.61021 6.8411,8.77812 10.121,15.0881 3.2347,5.79194 4.3183,10.24991 4.7703,13.41857 7.9421,-3.06288 14.681,-5.31536 20.0453,-7.75635 4.8185,-1.46502 46.1389,-18.58092 47.0758,-18.18461 1.1766,0.49767 -42.9873,17.75669 -45.3343,18.98008 -5.8213,1.96083 -14.6603,4.83924 -21.7058,8.31854 1.2172,5.2926 2.2549,17.97216 -1.5297,26.37315 30.9113,-15.02725 61.2376,-28.02701 86.2867,-41.59231 z m -101.3822,20.90953 c -0.3979,-17.15233 -13.8828,-41.42341 -26.4481,-43.73261 -1.8112,-0.11126 -12.2756,2.7122 -18.5923,5.00748 l -10.5788,3.84398 c 17.8682,8.92606 26.4377,28.99132 30.4357,43.84697 2.4401,-1.07619 4.8315,-1.22835 25.1835,-8.96582 z m 150.7082,-28.05479 c -0.6187,-0.6187 -5.7793,-2.33969 -12.3869,-3.84544 -28.7061,-6.40086 -6.1026,-0.12999 4.8057,3.11174 7.1854,2.09872 9.1349,2.28737 7.5812,0.7337 z m 1.5428,-5.82869 c -3.5748,-2.45219 -8.5666,-2.54897 -13.6336,-3.90948 -23.8438,-6.38102 -9.9957,-0.49701 5.5609,2.74555 3.9881,0.54384 7.8291,1.89469 8.0727,1.16393 z"
         id="path3048"
         style="fill:#000000" />
    </g>
    <path
       d="m -221.36574,190.56814 c 3.47005,-1.23879 8.37518,-2.77169 10.72619,-2.633 6.01632,-0.40925 9.12287,9.95821 4.75436,24.32407 -2.54319,8.62761 -2.10948,13.75788 -1.97464,19.74639 0.13229,5.87479 -0.0536,17.99359 -3.20879,27.15127 -1.87467,5.44115 -6.81023,11.98283 -3.96469,21.31463 2.85642,7.35055 13.14143,20.26231 26.47537,23.93566"
       id="path5296"
       style="fill:none;stroke:#000000;stroke-width:6.85315609;stroke-linecap:round;stroke-linejoin:miter;stroke-miterlimit:4;stroke-opacity:1;stroke-dasharray:none" />
  </g>
  <g
     transform="matrix(1.5297971,0,0,1.5297971,741.94677,271.0658)"
     id="g3824">
    <path
       d="m -76.884507,83.602325 c 0,-0.220084 0.59251,-1.283746 1.31669,-2.363691 1.40796,-2.099632 1.57447,-2.911332 0.87477,-4.264392 -1.35211,-2.614691 -3.88843,-1.842774 -8.33127,2.535594 -1.79449,1.768448 -3.00314,2.737048 -3.41539,2.737048 -0.35093,0 -2.13007,-0.468949 -3.95365,-1.042107 -4.07456,-1.280647 -6.5294,-1.873883 -7.77774,-1.87956 -1.47396,-0.0067 -1.16454,-0.632883 1.06572,-2.156753 2.17662,-1.48722 2.82477,-2.492769 2.49709,-3.874018 -0.3639,-1.533886 -1.21397,-2.166327 -2.9118,-2.166327 -1.72741,0 -2.36152,0.178064 -6.469763,1.816774 l -2.96591,1.183051 -1.27678,-0.886915 c -0.70222,-0.487803 -2.4618,-1.886202 -3.91016,-3.107554 -1.44837,-1.22135 -3.25343,-2.517637 -4.01125,-2.880638 -1.34795,-0.645684 -1.76671,-1.271554 -1.03609,-1.548513 0.20117,-0.07626 1.28744,-0.329797 2.41395,-0.563426 2.48928,-0.516259 3.36489,-1.326305 3.36489,-3.112968 0,-2.400222 -1.95475,-3.188973 -7.90318,-3.188973 -4.20195,0 -3.83251,0.279848 -6.62688,-5.019844 -1.10098,-2.088086 -2.50575,-4.462373 -3.12169,-5.276187 -0.61595,-0.813815 -1.01095,-1.584621 -0.8778,-1.712899 0.13316,-0.128281 1.25893,-0.02882 2.50171,0.220991 2.64421,0.531545 3.77919,0.249795 4.48397,-1.113102 1.26857,-2.453145 0.12567,-3.657971 -6.11103,-6.442124 -1.58325,-0.706788 -2.99722,-1.504082 -3.14217,-1.771769 -0.14494,-0.267685 -0.53434,-2.888027 -0.86533,-5.82298 -0.33099,-2.934956 -0.72747,-5.571098 -0.88107,-5.858096 -0.42829,-0.800282 -0.3361,-1.145482 0.30594,-1.145482 0.32186,0 0.58519,0.11074 0.58519,0.2461 0,0.494635 3.01804,1.879521 4.16132,1.909498 0.96907,0.0254 1.307,-0.13294 2.044,-0.957782 0.74298,-0.831538 0.8595,-1.163266 0.7349,-2.092226 -0.19895,-1.48332 -1.6205,-3.47598 -4.39332,-6.15835 l -2.29989,-2.22487 0.33405,-1.28631 c 0.18373,-0.70748 0.78808,-2.80052 1.34301,-4.6512105 0.55494,-1.85069 1.10614,-4.14404 1.2249,-5.09635 0.11876,-0.9523 0.37607,-1.78472 0.57181,-1.84984 0.19574,-0.0651 0.81701,0.60246 1.3806,1.4835 1.90564,2.97899 3.77368,3.65502 5.4547,1.97401 1.28172,-1.28173 1.10025,-2.82143 -0.94309,-8.00172 -0.62019,-1.57229 -1.12567,-3.08649 -1.1233,-3.36488 0.002,-0.2784 0.98436,-1.6912 2.18218,-3.13956 1.19782,-1.44837 2.93133,-3.7196695 3.85224,-5.0473395 0.92091,-1.32767 1.83768,-2.41394 2.03726,-2.41394 0.19959,0 0.44845,0.42793 0.55304,0.95095 0.67544,3.3779 1.74023,4.9010295 3.42623,4.9010295 2.34283,0 2.86847,-1.1710295 3.20132,-7.1319995 0.14371,-2.57379 0.29194,-4.69959 0.32938,-4.72399 0.19742,-0.12863 5.54218,-3.1088 6.79787,-3.79039 2.253893,-1.22344 3.948983,-2.32554 3.949563,-2.56791 2.9e-4,-0.1207 0.21297,-0.21945 0.47263,-0.21945 0.37387,0 0.43528,0.19788 0.29514,0.95095 -0.53511,2.87532 -0.51571,4.16306 0.0768,5.10252 0.81281,1.28868 2.43662,1.74062 3.67678,1.02333 1.22301,-0.70736 2.57911,-2.81474 3.66143,-5.68985 0.49919,-1.32608 1.02712,-2.69635 1.17318,-3.04504 0.32717,-0.78109 1.89985,-1.13158 6.98398,-1.55648 1.98627,-0.166 4.19678,-0.44922 4.91225,-0.62938 1.51197,-0.38072 1.85825,-0.18865 1.28334,0.71182 -1.22902,1.92498 -2.04312,3.66267 -2.04781,4.37106 -0.003,0.47487 0.3393,1.1857 0.84255,1.74895 0.68663,0.76847 1.06877,0.94891 2.00966,0.94891 1.50041,0 2.95359,-0.99713 6.11627,-4.1968 2.42497,-2.45333 2.42672,-2.45441 3.67539,-2.28318 0.68711,0.0942 2.76348,0.64741 4.61417,1.2293 1.85069,0.58189 4.31949,1.21108 5.48623,1.3982 2.16845,0.34777 2.63284,0.75826 1.463,1.2932 -0.36209,0.16558 -1.34327,0.84312 -2.18042,1.50565 -1.78816,1.41518 -2.19736,2.60487 -1.4158,4.11624 0.99285,1.91997 3.26827,1.88181 8.2242,-0.13793 1.75726,-0.71615 3.46639,-1.30209 3.79808,-1.30209 0.33172,0 2.41927,1.45225 4.639011,3.22721 2.219773,1.77497 4.549769,3.48935 5.177774,3.80974 0.628006,0.32039 1.141839,0.76689 1.141839,0.99223 0,0.39939 -0.366715,0.52132 -2.779691,0.92419 -2.321511,0.38761 -3.657489,1.53001 -3.657489,3.12754 0,2.4036795 1.804254,3.1948095 7.686724,3.3705095 5.024728,0.15009 4.288081,-0.34634 7.054693,4.75421 0.921424,1.69872003 2.194961,3.77519 2.830106,4.61437 1.037351,1.37056 1.455944,2.39171 0.980412,2.39171 -0.09591,0 -0.905214,-0.21245 -1.798431,-0.47212 -2.321657,-0.67492 -4.075379,-0.42092 -5.113169,0.74057 -1.840372,2.05973 -0.581114,3.89651 4.193764,6.1171305 1.671209,0.77722 3.518826,1.6249 4.105838,1.88373 1.016109,0.44805 1.082938,0.56623 1.394351,2.46468 0.179861,1.09674 0.522524,3.57411 0.76146,5.50526 0.238907,1.93116 0.517462,4.00495 0.618994,4.608439 0.148172,0.880837 0.09386,1.097246 -0.275336,1.097246 -0.252952,0 -0.542976,-0.134411 -0.644508,-0.298693 -0.101532,-0.164283 -0.866415,-0.689724 -1.699737,-1.167652 -2.380148,-1.36509 -4.42047,-1.14878 -5.305407,0.562469 -0.846489,1.636942 0.183167,3.602494 3.820847,7.293763 1.512035,1.534311 2.749144,3.029598 2.749144,3.322861 0,0.293263 -0.591753,2.576425 -1.315028,5.073691 -0.723276,2.497265 -1.399063,5.255389 -1.501765,6.129163 -0.108818,0.925781 -0.323176,1.56355 -0.513716,1.528456 -0.179832,-0.03312 -0.681551,-0.653833 -1.114949,-1.379353 -1.591242,-2.663875 -3.429788,-3.776951 -5.08742,-3.079971 -1.308193,0.550057 -1.664491,1.170136 -1.646877,2.866119 0.01639,1.576772 1.022441,4.782233 2.291765,7.302082 1.092243,2.168241 1.144735,2.038219 -2.810689,6.958954 -1.228916,1.52883 -2.676726,3.470957 -3.217332,4.315837 -0.540577,0.844879 -1.078315,1.536145 -1.194916,1.536145 -0.312993,0 -0.567233,-0.806102 -0.567233,-1.798434 0,-0.480024 -0.282328,-1.529047 -0.627361,-2.33116 -0.674383,-1.567585 -1.667435,-2.307586 -3.096781,-2.307586 -2.19066,0 -3.003847,1.970792 -3.009617,7.293951 -0.003,2.023182 -0.0751,3.943053 -0.16201,4.266381 -0.10273,0.382243 -1.60435,1.405693 -4.29301,2.925991 -2.27429,1.285967 -4.70424,2.76605 -5.39992,3.289071 -1.65968,1.247733 -1.95497,1.222666 -1.72361,-0.1463 0.102,-0.603485 0.26225,-1.902215 0.35615,-2.886071 0.15964,-1.67295 0.11654,-1.848313 -0.66549,-2.707267 -1.14526,-1.257919 -2.31378,-1.439596 -3.61418,-0.561916 -1.23536,0.83377 -2.90671,3.618371 -3.78372,6.30395 -0.97848,2.996227 -1.15884,3.182361 -3.44772,3.557985 -1.09292,0.17936 -3.44999,0.449932 -5.23794,0.60127 -1.78795,0.151341 -3.82883,0.476451 -4.53529,0.722465 -1.5843,0.551716 -1.72336,0.556208 -1.72336,0.05566 z m 1.237611,-48.240712 c 1.108533,0 10.096238,-0.390436 10.096238,-9.73564 0,-1.178522 -1.385488,-9.976475 -10.298802,-9.976475 -0.824903,0 -9.922953,1.113922 -9.922953,9.933597 0,0 1.000411,9.778518 10.125517,9.778518 z"
       id="path3035"
       style="fill:#000000" />
    <path
       d="m -66.9375,25.656252 a 9.96875,9.96875 0 1 1 -19.9375,0 9.96875,9.96875 0 1 1 19.9375,0 z"
       transform="translate(1.125,-0.0625)"
       id="path3046"
       style="fill:none;stroke:#000000;stroke-width:1;stroke-linejoin:round;stroke-miterlimit:4;stroke-opacity:1;stroke-dasharray:none" />
  </g>
</svg>
